<svg id="Layer_1" data-name="Layer 1" xmlns="http://www.w3.org/2000/svg" viewBox="0 0 699.57 699.3"><defs><style>.cls-1{fill:#d2d2d2;}</style></defs><polygon class="cls-1" points="347.74 0 347.74 0 345.86 350 349.86 350 347.74 0"/><polygon class="cls-1" points="396.47 3.11 396.47 3.11 345.9 349.44 349.86 350 396.47 3.11"/><polygon class="cls-1" points="444.3 12.97 444.3 12.97 346.02 348.9 349.86 350 444.3 12.97"/><polygon class="cls-1" points="490.28 29.4 490.28 29.4 346.21 348.37 349.86 350 490.28 29.4"/><polygon class="cls-1" points="533.53 52.06 533.53 52.06 346.47 347.88 349.86 350 533.53 52.06"/><polygon class="cls-1" points="573.21 80.52 573.21 80.52 346.8 347.43 349.86 350 573.21 80.52"/><polygon class="cls-1" points="608.54 114.23 608.54 114.23 347.18 347.03 349.86 350 608.54 114.23"/><polygon class="cls-1" points="638.84 152.53 638.84 152.53 347.62 346.68 349.86 350 638.84 152.53"/><polygon class="cls-1" points="663.51 194.66 663.51 194.66 348.11 346.4 349.86 350 663.51 194.66"/><polygon class="cls-1" points="682.08 239.83 682.08 239.83 348.63 346.2 349.86 350 682.08 239.83"/><polygon class="cls-1" points="694.17 287.14 694.17 287.14 349.17 346.06 349.86 350 694.17 287.14"/><polygon class="cls-1" points="699.57 335.67 699.57 335.67 349.72 346 349.86 350 699.57 335.67"/><polygon class="cls-1" points="698.16 384.48 698.16 384.48 350.28 346.02 349.86 350 698.16 384.48"/><polygon class="cls-1" points="689.98 432.62 689.98 432.62 350.83 346.12 349.86 350 689.98 432.62"/><polygon class="cls-1" points="675.17 479.15 675.17 479.15 351.36 346.29 349.86 350 675.17 479.15"/><polygon class="cls-1" points="654.03 523.16 654.03 523.16 351.86 346.54 349.86 350 654.03 523.16"/><polygon class="cls-1" points="626.97 563.81 626.97 563.81 352.32 346.85 349.86 350 626.97 563.81"/><polygon class="cls-1" points="594.52 600.3 594.52 600.3 352.74 347.22 349.86 350 594.52 600.3"/><polygon class="cls-1" points="557.3 631.91 557.3 631.91 353.1 347.65 349.86 350 557.3 631.91"/><polygon class="cls-1" points="516.05 658.04 516.05 658.04 353.39 348.12 349.86 350 516.05 658.04"/><polygon class="cls-1" points="471.56 678.17 471.56 678.17 353.62 348.63 349.86 350 471.56 678.17"/><polygon class="cls-1" points="424.7 691.91 424.7 691.91 353.77 349.17 349.86 350 424.7 691.91"/><polygon class="cls-1" points="376.39 699 376.39 699 353.85 349.72 349.86 350 376.39 699"/><polygon class="cls-1" points="327.56 699.29 327.56 699.29 353.85 350.28 349.86 350 327.56 699.29"/><polygon class="cls-1" points="279.16 692.79 279.16 692.79 353.77 350.83 349.86 350 279.16 692.79"/><polygon class="cls-1" points="232.15 679.62 232.15 679.62 353.62 351.37 349.86 350 232.15 679.62"/><polygon class="cls-1" points="187.42 660.03 187.42 660.03 353.39 351.88 349.86 350 187.42 660.03"/><polygon class="cls-1" points="145.85 634.4 145.85 634.4 353.1 352.35 349.86 350 145.85 634.4"/><polygon class="cls-1" points="108.25 603.24 108.25 603.24 352.74 352.78 349.86 350 108.25 603.24"/><polygon class="cls-1" points="75.36 567.15 75.36 567.15 352.32 353.15 349.86 350 75.36 567.15"/><polygon class="cls-1" points="47.81 526.84 47.81 526.84 351.86 353.46 349.86 350 47.81 526.84"/><polygon class="cls-1" points="26.14 483.08 26.14 483.08 351.36 353.71 349.86 350 26.14 483.08"/><polygon class="cls-1" points="10.77 436.73 10.77 436.73 350.83 353.88 349.86 350 10.77 436.73"/><polygon class="cls-1" points="2 388.69 2 388.69 350.28 353.98 349.86 350 2 388.69"/><polygon class="cls-1" points="0 339.9 0 339.9 349.72 354 349.86 350 0 339.9"/><polygon class="cls-1" points="4.81 291.31 4.81 291.31 349.17 353.94 349.86 350 4.81 291.31"/><polygon class="cls-1" points="16.34 243.86 16.34 243.86 348.63 353.8 349.86 350 16.34 243.86"/><polygon class="cls-1" points="34.35 198.47 34.35 198.47 348.11 353.6 349.86 350 34.35 198.47"/><polygon class="cls-1" points="58.51 156.04 58.51 156.04 347.62 353.32 349.86 350 58.51 156.04"/><polygon class="cls-1" points="88.34 117.38 88.34 117.38 347.18 352.97 349.86 350 88.34 117.38"/><polygon class="cls-1" points="123.26 83.25 123.26 83.25 346.8 352.57 349.86 350 123.26 83.25"/><polygon class="cls-1" points="162.59 54.31 162.59 54.31 346.47 352.12 349.86 350 162.59 54.31"/><polygon class="cls-1" points="205.57 31.12 205.57 31.12 346.21 351.63 349.86 350 205.57 31.12"/><polygon class="cls-1" points="251.35 14.14 251.35 14.14 346.02 351.1 349.86 350 251.35 14.14"/><polygon class="cls-1" points="299.05 3.7 299.05 3.7 345.9 350.56 349.86 350 299.05 3.7"/></svg>